<?xml version="1.0" encoding="utf-8"?>
<!-- Generator: Adobe Illustrator 24.3.0, SVG Export Plug-In . SVG Version: 6.00 Build 0)  -->
<svg version="1.1" id="Layer_1" xmlns="http://www.w3.org/2000/svg" xmlns:xlink="http://www.w3.org/1999/xlink" x="0px" y="0px"
	 viewBox="0 0 64.8 120" style="enable-background:new 0 0 64.8 120;" xml:space="preserve">
<style type="text/css">
	.st0{fill-rule:evenodd;clip-rule:evenodd;fill:#FFFFFF;}
</style>
<g id="Layer_2_1_">
	<g id="Layer">
		<path class="st0" d="M54.7,4c-0.8,2-7.5,6-12.1,6c-1.5,0-3.2,0-4.7,0c-3,0-5.5,0-5.5,0s-2.5,0-5.5,0c-1.5,0-3.1,0-4.7,0
			C17.7,10,11,6,10.1,4C10.2,4.2,4,8,4.1,8c2.3,0.1,6.2,8.6,6.1,12s0.2,10.9,2,14c1.5,2.6,1.9,6.1,2,10h36.5c0.1-3.9,0.5-7.4,2-10
			c1.8-3.1,2.1-10.5,2-14s3.8-11.9,6.1-12C60.8,8,54.6,4.2,54.7,4z M4.1,84c0,12.6,6.1,32,6.1,32h44.5c0,0,6.1-19.4,6.1-32
			s-3.5-18.9-6.1-24s-4-9.2-4-14H14.2c0,4.8-1.4,8.9-4,14S4.1,71.4,4.1,84z M64.7,9c-0.3,1.3-1.3,2.3-2.6,2.8
			c-1.3,1.4-3.4,6.4-3.4,8.1c0,0.5,0.3,11.1-2.6,16.1c-1.4,2.4-1.5,6.4-1.5,10s1,7.1,3.6,12.2l0.3,0.6c2.6,5.1,6.2,12.1,6.2,25.2
			s-6,32.4-6.2,33.2c-0.5,1.7-2.1,2.8-3.9,2.8H10.1c-1.8,0-3.3-1.1-3.9-2.8C6,116.4,0,97.1,0,84s3.6-20.1,6.2-25.2l0.3-0.6
			c2.6-5.1,3.6-8.5,3.6-12.2S10,38.3,8.7,36c-2.9-5-2.6-15.7-2.6-16.1c0.1-1.7-2-6.7-3.4-8.1C1.5,11.3,0.5,10.3,0.2,9
			c-0.7-2.8,1.5-4.2,2.8-5c0.9-0.6,3.5-2.2,4.3-2.8c0.4-0.4,0.9-0.7,1.4-0.9c1.9-0.7,4.1,0.1,5,1.9c1,1.1,5.6,3.8,8.6,3.8
			c1.5,0,3.1,0,4.6,0c3,0,5.4,0,5.5,0s2.4,0,5.4,0c1.5,0,3.2,0,4.7,0c3,0,7.6-2.7,8.6-3.8C51.8,0.8,53.1,0,54.7,0
			c0.5,0,1,0.1,1.5,0.3c0.5,0.2,1,0.5,1.4,0.9C58.4,1.8,61,3.4,61.9,4C63.2,4.8,65.4,6.2,64.7,9z"/>
	</g>
</g>
</svg>
