<?xml version="1.0" encoding="utf-8"?>
<!-- Generator: Adobe Illustrator 24.3.0, SVG Export Plug-In . SVG Version: 6.00 Build 0)  -->
<svg version="1.1" id="Layer_1" xmlns="http://www.w3.org/2000/svg" xmlns:xlink="http://www.w3.org/1999/xlink" x="0px" y="0px"
	 viewBox="0 0 96.9 110" style="enable-background:new 0 0 96.9 110;" xml:space="preserve">
<style type="text/css">
	.st0{fill:#FFFFFF;}
</style>
<g id="Layer_2_1_">
	<g id="Layer">
		<path class="st0" d="M70.7,0h-6.1c-2.2,0-4,1.8-4,4c0,6.7-5.4,12.1-12.1,12.1S36.3,10.7,36.3,4c0-2.2-1.8-4-4-4h-6
			c-0.6,0-1.3,0.2-1.9,0.4L2.2,11.9c-1.9,1-2.7,3.3-1.8,5.2l10.2,21.5c0.7,1.4,2.1,2.3,3.6,2.3c0.2,2.7,0.7,5.4,1.6,7.9
			c1.7,5.2,2.5,10.6,2.4,16c0,13.7-3.9,36.2-4,36.4c0,0.2-0.1,0.5-0.1,0.7c0,4.7,5.9,5.9,11.9,6.8c7.4,0.9,14.9,1.3,22.4,1.2
			c7.5,0,15-0.4,22.4-1.2c6-0.8,11.9-2,11.9-6.8c0-0.2,0-0.5-0.1-0.7c0-0.2-4-22.7-4-36.4c-0.1-5.4,0.7-10.8,2.4-16
			c0.9-2.6,1.4-5.2,1.6-7.9c1.5,0,2.9-0.9,3.6-2.3l10.2-21.5c0.9-1.9,0.1-4.3-1.8-5.2L72.5,0.4C71.9,0.2,71.3,0,70.7,0z M70.7,4
			l22.2,11.5L82.7,37l-3.9-1v4.1c0,6.7-4,10.6-4,24.8s4,37.1,4,37.1c0,2.2-12.4,3.9-30.3,4s-30.3-1.8-30.3-4c0,0,4-22.9,4-37.1
			s-4-18.1-4-24.8V36l-3.9,1L4,15.5L26.2,4h6c0,8.9,7.2,16.1,16.2,16.1c8.9,0,16.1-7.2,16.1-16.1H70.7z"/>
	</g>
</g>
</svg>
