<!-- Generator: Adobe Illustrator 24.3.0, SVG Export Plug-In  -->
<svg version="1.1" xmlns="http://www.w3.org/2000/svg" xmlns:xlink="http://www.w3.org/1999/xlink" x="0px" y="0px" width="210px"
	 height="170.1px" viewBox="0 0 210 170.1" style="overflow:visible;enable-background:new 0 0 210 170.1;" xml:space="preserve">
<style type="text/css">
	.st0{fill:#FFFFFF;}
</style>
<defs>
</defs>
<g>
	<path class="st0" d="M105.2,122.5c-3.5,0-6.2,1-8,3c-1.8,2-2.7,4.5-2.7,7.4s0.9,5.4,2.7,7.3c1.8,1.9,4.4,2.9,8,2.9s6.2-1,8-2.9
		c1.8-1.9,2.7-4.4,2.7-7.3s-0.9-5.4-2.7-7.4C111.4,123.5,108.7,122.5,105.2,122.5z"/>
	<path class="st0" d="M200.6,136.2l-85.8-44c1.2-4.4,3.1-8.1,5.7-11l10.6-10.5C141.7,59.6,147,48.4,147,37.1
		c0-11.5-3.4-20.6-10.3-27.2C129.8,3.3,120.2,0,107.9,0C96.1,0,86.4,3.2,79.1,9.7c-4.4,3.8-7.5,8.3-9.3,13.6c-2,5.8,2.3,12,8.4,12
		c3.9,0,7.4-2.5,8.5-6.2c1-3.1,2.7-5.7,5.2-7.9c4-3.5,9.4-5.3,16-5.3c6.8,0,12,1.9,15.6,5.8c3.6,3.9,5.4,9.2,5.4,16
		c0,7.1-2.7,13.7-8.2,19.9l-12.8,13.2c-5,5.5-8.3,10.4-10,14.9c-0.6,1.8-1.2,3.8-1.6,6l-87,44.6c-7.2,3.7-10.8,12.2-8.8,20.7
		c1.9,7.9,8.2,13.2,15.7,13.2h177.5c7.5,0,13.8-5.3,15.7-13.2C211.5,148.5,207.8,139.9,200.6,136.2z M194.8,153.4
		c-0.1,0.4-0.5,1.7-1.1,1.7H16.3c-0.6,0-1-1.3-1.1-1.7c-0.3-1.1-0.2-3.2,1-3.9l88.7-45.5h0.1l88.7,45.5
		C195.1,150.2,195.1,152.3,194.8,153.4z"/>
</g>
</svg>
