<?xml version="1.0" encoding="utf-8"?>
<!-- Generator: Adobe Illustrator 24.3.0, SVG Export Plug-In . SVG Version: 6.00 Build 0)  -->
<svg version="1.1" id="Layer_1" xmlns="http://www.w3.org/2000/svg" xmlns:xlink="http://www.w3.org/1999/xlink" x="0px" y="0px"
	 viewBox="0 0 119.8 110" style="enable-background:new 0 0 119.8 110;" xml:space="preserve">
<style type="text/css">
	.st0{fill-rule:evenodd;clip-rule:evenodd;fill:#FFFFFF;}
</style>
<g id="Layer_2_1_">
	<g id="Layer">
		<path class="st0" d="M113.9,73.2L98,78.8l2,5.2l15.8-5.7L113.9,73.2z M91.8,12l-14-3.7c0,0.4-0.2,0.8-0.5,1.1L67,21.3
			c-0.4,0.4-0.9,0.7-1.5,0.7h-0.3c-0.7-0.1-1.2-0.6-1.5-1.2L60.8,14H59l-3,6.8c-0.3,0.6-0.8,1.1-1.5,1.2h-0.3
			c-0.6,0-1.1-0.3-1.5-0.7l-10.4-12C42.1,9,42,8.7,41.9,8.3l-14,3.7L6.5,71.3L22.4,77l7.5-20.3V102c0,2,11.3,3.7,26,4l4-6l4,6
			c14.7-0.3,26-1.9,26-4V56.7L97.3,77l15.9-5.6L91.8,12z M75.8,7.7l-0.7-0.2l-1-3.5l-3,2.5l-1.2,1l-7.2,5.9l2.9,6.6L75.9,8L75.8,7.7
			z M49.9,7.5l-1.2-1l-3-2.5l-1,3.6L44,7.7L43.8,8l10.4,12l2.9-6.6L49.9,7.5z M4,78.4L19.8,84l1.9-5.2L5.9,73.2L4,78.4z M119.4,80.1
			c-0.5,1-1.3,1.7-2.3,2.1l-15.8,5.7c-0.4,0.1-0.9,0.2-1.3,0.2c-1.7,0-3.2-1-3.7-2.6l-2.4-6.5V102c0,4.9-6.6,5.9-10.9,6.6
			c-6.3,0.8-12.6,1.3-19,1.4h-0.1c-1.3,0-2.6-0.7-3.3-1.8l-0.6-1l-0.6,1c-0.7,1.1-2,1.8-3.4,1.8h-0.1c-6.4-0.1-12.7-0.5-19-1.4
			C32.5,108,26,107,26,102V78.9l-2.4,6.5C23,87,21.5,88,19.8,88c-0.5,0-0.9-0.1-1.3-0.2L2.7,82.2c-2.1-0.7-3.2-3-2.4-5.1
			c0,0,0,0,0,0l24-66.4c0.4-1.2,1.5-2.2,2.7-2.5l14.5-3.9l0.4-1.4c0.4-1.3,1.3-2.3,2.6-2.7c0.3-0.1,0.7-0.2,1-0.2h0.2
			c0.9,0,1.8,0.3,2.5,0.9l3,2.5l1.2,1l6.9,5.6h1.1l6.9-5.6l1.2-1l3-2.5C72.3,0.3,73.2,0,74.1,0h0.2c0.3,0,0.7,0.1,1,0.2
			c1.3,0.4,2.3,1.4,2.6,2.7l0.4,1.4l14.5,3.9c1.3,0.3,2.3,1.3,2.7,2.5l24,66.4C119.9,78,119.8,79.1,119.4,80.1L119.4,80.1z"/>
	</g>
</g>
</svg>
