<?xml version="1.0" encoding="utf-8"?>
<!-- Generator: Adobe Illustrator 24.3.0, SVG Export Plug-In . SVG Version: 6.00 Build 0)  -->
<svg version="1.1" id="Layer_1" xmlns="http://www.w3.org/2000/svg" xmlns:xlink="http://www.w3.org/1999/xlink" x="0px" y="0px"
	 viewBox="0 0 119.8 94" style="enable-background:new 0 0 119.8 94;" xml:space="preserve">
<style type="text/css">
	.st0{fill-rule:evenodd;clip-rule:evenodd;fill:#FFFFFF;}
</style>
<g id="Layer_2_1_">
	<g id="Layer">
		<path class="st0" d="M103.8,53.7c-2.1-10-11.2-44-16-48.1c-0.8-0.8-1.9-1.3-3.1-1.3c-1.1,0.1-2.3,0.5-3.2,1.1
			c-1.8,0.9-11.2,4.3-21.6,4.3S38.5,5.5,36.7,4.5C36.1,4.2,35.5,4,34.9,4c-1,0-1.8,0.5-3,1.6c-4.5,4.5-13.9,38.1-16,48.1
			s-12,14-12,14c3.3,6.8,13.6,10.3,18,11.5L35,36.8l1.9,0.6l-13,42.4H24v2c0,0,0.2,4,8,4l0,0c3.6,0,7.1,0.7,10.4,2.1L45.8,70l2,0.4
			l-3.5,18.1c1.8,0.6,3.7,1,5.6,1.3c1,0.1,2,0.2,3,0.2c5.2,0,7-2.2,7-2.2s1.8,2.2,7,2.2c1,0,2-0.1,3-0.2c1.9-0.3,3.8-0.7,5.6-1.3
			L72,70.4l2-0.4l3.4,17.8c3.3-1.3,6.8-2,10.4-2.1h0.1c7.7,0,8-4,8-4v-2H96L83,37.4l1.9-0.6l13,42.4c4.4-1.2,14.7-4.7,17.9-11.5
			C115.8,67.7,105.9,63.7,103.8,53.7z M119.4,69.4c-3.7,8-14.4,12-19.8,13.5c-0.5,2.1-2.7,6.8-11.9,6.8c-3,0-6,0.6-8.8,1.7
			c-2.8,1-5.7,1.8-8.6,2.2C69.2,93.9,68,94,66.8,94c-2.4,0.1-4.8-0.4-7-1.4c-2.2,1-4.6,1.5-7,1.4c-1.2,0-2.4-0.1-3.6-0.3
			c-2.9-0.4-5.8-1.2-8.6-2.2c-2.8-1.1-5.8-1.7-8.9-1.8c-9.1,0-11.3-4.8-11.8-6.8c-5.3-1.5-15.9-5.5-19.7-13.5c-1-2-0.1-4.4,1.9-5.3
			c0.1,0,0.1-0.1,0.2-0.1c0.1,0,8-3.4,9.6-11.1c1.3-6.2,11.1-44,17.1-50.1c1.5-1.7,3.5-2.7,5.8-2.8c1.3,0,2.5,0.4,3.6,1
			C39.6,1.5,50,5.7,59.9,5.7c6.8,0,13.5-1.3,19.8-3.8l0.1-0.1c1.5-0.9,3.2-1.4,5-1.5c2.1,0,4.1,0.9,5.7,2.3c1.2,1,4,3.5,10.2,23.7
			c3.1,10.1,5.9,21.2,7.1,26.6c1.6,7.7,9.5,11.1,9.6,11.1c2,0.8,3,3.2,2.2,5.2C119.5,69.3,119.4,69.4,119.4,69.4L119.4,69.4z"/>
	</g>
</g>
</svg>
