<?xml version="1.0" encoding="utf-8"?>
<!-- Generator: Adobe Illustrator 24.3.0, SVG Export Plug-In . SVG Version: 6.00 Build 0)  -->
<svg version="1.1" id="Layer_1" xmlns="http://www.w3.org/2000/svg" xmlns:xlink="http://www.w3.org/1999/xlink" x="0px" y="0px"
	 viewBox="0 0 119.2 108" style="enable-background:new 0 0 119.2 108;" xml:space="preserve">
<style type="text/css">
	.st0{fill:#FFFFFF;}
</style>
<g id="Layer_2_1_">
	<g id="Layer">
		<path class="st0" d="M95.4,10L74,4h-0.2c0,0-1.5,18.3-14.2,18.3S45.3,4,45.3,4h-0.2l-21.3,6L4,76.4l17.7,7.7l8.1-29.4v45.4
			c0,2,10.8,3.6,24.9,4h9.9c14.1-0.3,24.9-2,24.9-4V54.7l8.1,29.4l17.7-7.7L95.4,10z M116.8,80.1l-17.7,7.7c-0.5,0.2-1,0.3-1.6,0.3
			s-1.2-0.1-1.7-0.4c-1-0.5-1.8-1.4-2.1-2.5L93.4,84v16c0,4.9-6.6,5.9-10.5,6.6c-6,0.9-12.1,1.3-18.2,1.4h-0.1c-1.5,0-8.4,0-9.9,0
			h-0.1c-6.1-0.1-12.2-0.5-18.2-1.4c-3.9-0.6-10.5-1.7-10.5-6.6V84l-0.3,1.1c-0.3,1.1-1.1,2-2.1,2.5C23,87.9,22.4,88,21.8,88
			c-0.5,0-1.1-0.1-1.6-0.3L2.4,80.1c-1.9-0.8-2.8-2.9-2.2-4.8L20,8.9c0.4-1.4,1.6-2.4,3-2.8l21.3-6C44.6,0,44.9,0,45.2,0h0.2
			c1.9,0,3.6,1.4,3.9,3.3c0,0,0.9,15.2,10.4,15.2S70,3.4,70,3.4c0.3-1.9,2-3.3,3.9-3.3H74c0.3,0,0.6,0,0.9,0.1l21.3,6
			c1.4,0.3,2.5,1.4,2.9,2.8L119,75.2C119.6,77.2,118.6,79.3,116.8,80.1L116.8,80.1z"/>
	</g>
</g>
</svg>
