<?xml version="1.0" encoding="utf-8"?>
<!-- Generator: Adobe Illustrator 24.3.0, SVG Export Plug-In . SVG Version: 6.00 Build 0)  -->
<svg version="1.1" id="Layer_1" xmlns="http://www.w3.org/2000/svg" xmlns:xlink="http://www.w3.org/1999/xlink" x="0px" y="0px"
	 viewBox="0 0 80 120" style="enable-background:new 0 0 80 120;" xml:space="preserve">
<style type="text/css">
	.st0{fill-rule:evenodd;clip-rule:evenodd;fill:#FFFFFF;}
</style>
<g id="Layer_2_1_">
	<g id="Layer">
		<path class="st0" d="M76,106.9c0,2.8-16.1,5.1-36,5.1s-36-2.3-36-5.1v-2c0,2.8,16.1,5.1,36,5.1s36-2.3,36-5.1v-47
			c-7.6,0-13.7-12.5-14-28l0,0V4h-8v20.9c0,7.2-5.8,13-13,13c0,0,0,0,0,0h-2c-7.2,0-13-5.8-13-13V4h-8v25.9l0,0
			c-0.3,15.6-6.4,28-14,28v53c0,2.8,16.1,5.1,36,5.1s36-2.3,36-5.1V106.9z M66,118.5c-8.6,1.1-17.3,1.6-26,1.5
			c-8.7,0.1-17.4-0.4-26-1.5c-8.6-1.2-14-2.9-14-7.6v-53c0-2.2,1.8-4,4-4c4,0,9.7-9.2,10-24.1c0-0.1,0-0.2,0-0.4V4c0-2.2,1.8-4,4-4
			h8c2.2,0,4,1.8,4,4v20.9c0,5,4,9,9,9c0,0,0,0,0,0h2c5,0,9-4,9-9V4c0-2.2,1.8-4,4-4h8c2.2,0,4,1.8,4,4v25.4c0,0.1,0,0.2,0,0.4
			c0.2,14.9,6,24.1,10,24.1c2.2,0,4,1.8,4,4v53C80,115.6,74.7,117.2,66,118.5z"/>
	</g>
</g>
</svg>
