<?xml version="1.0" encoding="utf-8"?>
<!-- Generator: Adobe Illustrator 24.3.0, SVG Export Plug-In . SVG Version: 6.00 Build 0)  -->
<svg version="1.1" id="Layer_1" xmlns="http://www.w3.org/2000/svg" xmlns:xlink="http://www.w3.org/1999/xlink" x="0px" y="0px"
	 viewBox="0 0 89.9 120" style="enable-background:new 0 0 89.9 120;" xml:space="preserve">
<style type="text/css">
	.st0{fill-rule:evenodd;clip-rule:evenodd;fill:#FFFFFF;}
</style>
<g id="Layer_2_1_">
	<g id="Layer">
		<path class="st0" d="M77.1,12H12.8l-8,92.3l33.2,3.5l5.9-67.6h2.3l5.9,67.6l33.2-3.5L77.1,12z M76.8,8.9V4H13v4.9L12.9,10h64
			L76.8,8.9z M4,113l33.2,3l0.5-6.2l-33.2-3.5L4,113z M85.9,113l-0.6-6.7l-33.2,3.5l0.5,6.2L85.9,113z M88.9,115.6
			c-0.7,0.8-1.6,1.3-2.7,1.4L53,120h-0.3c-0.9,0-1.8-0.4-2.6-1c-0.8-0.7-1.3-1.7-1.4-2.7L44.9,73l-3.8,43.3c-0.1,1.1-0.6,2-1.4,2.7
			c-0.7,0.6-1.6,0.9-2.6,0.9h-0.3L3.6,117c-1.1-0.1-2-0.6-2.7-1.4c-0.7-0.8-1-1.9-0.9-2.9l9-104V4c0-2.2,1.8-4,4-4h63.8
			c2.2,0,4,1.8,4,4v4.7l9,104C89.9,113.7,89.6,114.8,88.9,115.6L88.9,115.6z"/>
	</g>
</g>
</svg>
